<?xml version="1.0" encoding="utf-8"?>
<!-- Generator: Adobe Illustrator 23.0.0, SVG Export Plug-In . SVG Version: 6.00 Build 0)  -->
<svg version="1.1" id="Capa_1" xmlns="http://www.w3.org/2000/svg" xmlns:xlink="http://www.w3.org/1999/xlink" x="0px" y="0px"
	 viewBox="0 0 36.4 36.4" style="enable-background:new 0 0 36.4 36.4;" xml:space="preserve">
<style type="text/css">
	.st0{fill:#FF4500;}
</style>
<g>
	<g>
		<rect x="12.9" y="14.6" class="st0" width="4.6" height="4.1"/>
		<rect x="19" y="14.6" class="st0" width="4.6" height="4.1"/>
		<rect x="25.1" y="14.6" class="st0" width="4.6" height="4.1"/>
		<rect x="6.7" y="20.1" class="st0" width="4.6" height="4.1"/>
		<rect x="12.9" y="20.1" class="st0" width="4.6" height="4.1"/>
		<rect x="19" y="20.1" class="st0" width="4.6" height="4.1"/>
		<rect x="25.1" y="20.1" class="st0" width="4.6" height="4.1"/>
		<rect x="6.7" y="25.5" class="st0" width="4.6" height="4.1"/>
		<rect x="12.9" y="25.5" class="st0" width="4.6" height="4.1"/>
		<rect x="19" y="25.5" class="st0" width="4.6" height="4.1"/>
		<rect x="25.1" y="25.5" class="st0" width="4.6" height="4.1"/>
		<path class="st0" d="M32,32.2c0,1-0.8,1.8-1.8,1.8h-24c-1,0-1.8-0.8-1.8-1.8V12.1H2v20.1c0,2.3,1.9,4.3,4.3,4.3h24
			c2.3,0,4.2-1.9,4.2-4.3V12.1H32C32,12.1,32,32.2,32,32.2z"/>
		<path class="st0" d="M30.2,3.9h-1.1V2.8c0-1.5-1.2-2.8-2.7-2.8s-2.7,1.2-2.7,2.8v1.2H21V2.8C21,1.2,19.9,0,18.4,0
			c-1.5,0-2.7,1.2-2.7,2.8v1.2H13V2.8C13,1.2,11.8,0,10.3,0S7.6,1.2,7.6,2.8v1.2H6.2C3.9,3.9,2,5.9,2,8.2v2h2.5H32h2.5v-2
			C34.5,5.9,32.6,3.9,30.2,3.9z M11.5,7.6c0,0.7-0.5,1.3-1.2,1.3S9.1,8.3,9.1,7.6V2.8c0-0.7,0.5-1.3,1.2-1.3s1.2,0.6,1.2,1.3V7.6z
			 M19.5,7.6c0,0.7-0.5,1.3-1.2,1.3c-0.6,0-1.2-0.6-1.2-1.3V2.8c0-0.7,0.5-1.3,1.2-1.3c0.6,0,1.2,0.6,1.2,1.3V7.6z M27.6,7.6
			c0,0.7-0.5,1.3-1.2,1.3s-1.2-0.6-1.2-1.3V2.8c0-0.7,0.5-1.3,1.2-1.3s1.2,0.6,1.2,1.3V7.6z"/>
	</g>
</g>
</svg>
